<svg width="248" height="22" viewBox="0 0 248 22" fill="none" xmlns="http://www.w3.org/2000/svg">
<path d="M4.88 2.06C6.4 2.06 7.71333 2.34667 8.82 2.92C9.94 3.48 10.7933 4.28667 11.38 5.34C11.98 6.39333 12.28 7.63333 12.28 9.06C12.28 10.4867 11.98 11.7267 11.38 12.78C10.7933 13.82 9.94 14.62 8.82 15.18C7.71333 15.7267 6.4 16 4.88 16H0.54V2.06H4.88ZM4.88 14.5C6.68 14.5 8.05333 14.0267 9 13.08C9.94667 12.12 10.42 10.78 10.42 9.06C10.42 7.32667 9.94 5.97333 8.98 5C8.03333 4.02667 6.66667 3.54 4.88 3.54H2.36V14.5H4.88ZM15.6206 3.26C15.274 3.26 14.9806 3.14 14.7406 2.9C14.5006 2.66 14.3806 2.36667 14.3806 2.02C14.3806 1.67333 14.5006 1.38 14.7406 1.14C14.9806 0.899999 15.274 0.779999 15.6206 0.779999C15.954 0.779999 16.234 0.899999 16.4606 1.14C16.7006 1.38 16.8206 1.67333 16.8206 2.02C16.8206 2.36667 16.7006 2.66 16.4606 2.9C16.234 3.14 15.954 3.26 15.6206 3.26ZM16.5006 5.04V16H14.6806V5.04H16.5006ZM21.4225 6.82C21.7425 6.19333 22.1958 5.70667 22.7825 5.36C23.3825 5.01333 24.1092 4.84 24.9625 4.84V6.72H24.4825C22.4425 6.72 21.4225 7.82667 21.4225 10.04V16H19.6025V5.04H21.4225V6.82ZM37.0634 10.1C37.0634 10.4467 37.0434 10.8133 37.0034 11.2H28.2434C28.3101 12.28 28.6768 13.1267 29.3434 13.74C30.0234 14.34 30.8434 14.64 31.8034 14.64C32.5901 14.64 33.2434 14.46 33.7634 14.1C34.2968 13.7267 34.6701 13.2333 34.8834 12.62H36.8434C36.5501 13.6733 35.9634 14.5333 35.0834 15.2C34.2034 15.8533 33.1101 16.18 31.8034 16.18C30.7634 16.18 29.8301 15.9467 29.0034 15.48C28.1901 15.0133 27.5501 14.3533 27.0834 13.5C26.6168 12.6333 26.3834 11.6333 26.3834 10.5C26.3834 9.36667 26.6101 8.37333 27.0634 7.52C27.5168 6.66667 28.1501 6.01333 28.9634 5.56C29.7901 5.09333 30.7368 4.86 31.8034 4.86C32.8434 4.86 33.7634 5.08667 34.5634 5.54C35.3634 5.99333 35.9768 6.62 36.4034 7.42C36.8434 8.20667 37.0634 9.1 37.0634 10.1ZM35.1834 9.72C35.1834 9.02667 35.0301 8.43333 34.7234 7.94C34.4168 7.43333 33.9968 7.05333 33.4634 6.8C32.9434 6.53333 32.3634 6.4 31.7234 6.4C30.8034 6.4 30.0168 6.69333 29.3634 7.28C28.7234 7.86667 28.3568 8.68 28.2634 9.72H35.1834ZM38.7858 10.5C38.7858 9.36667 39.0124 8.38 39.4658 7.54C39.9191 6.68667 40.5458 6.02667 41.3458 5.56C42.1591 5.09333 43.0858 4.86 44.1258 4.86C45.4724 4.86 46.5791 5.18667 47.4458 5.84C48.3258 6.49333 48.9058 7.4 49.1858 8.56H47.2258C47.0391 7.89333 46.6724 7.36667 46.1258 6.98C45.5924 6.59333 44.9258 6.4 44.1258 6.4C43.0858 6.4 42.2458 6.76 41.6058 7.48C40.9658 8.18667 40.6458 9.19333 40.6458 10.5C40.6458 11.82 40.9658 12.84 41.6058 13.56C42.2458 14.28 43.0858 14.64 44.1258 14.64C44.9258 14.64 45.5924 14.4533 46.1258 14.08C46.6591 13.7067 47.0258 13.1733 47.2258 12.48H49.1858C48.8924 13.6 48.3058 14.5 47.4258 15.18C46.5458 15.8467 45.4458 16.18 44.1258 16.18C43.0858 16.18 42.1591 15.9467 41.3458 15.48C40.5458 15.0133 39.9191 14.3533 39.4658 13.5C39.0124 12.6467 38.7858 11.6467 38.7858 10.5ZM53.8342 6.54V13C53.8342 13.5333 53.9476 13.9133 54.1742 14.14C54.4009 14.3533 54.7942 14.46 55.3542 14.46H56.6942V16H55.0542C54.0409 16 53.2809 15.7667 52.7742 15.3C52.2676 14.8333 52.0142 14.0667 52.0142 13V6.54H50.5942V5.04H52.0142V2.28H53.8342V5.04H56.6942V6.54H53.8342ZM63.6794 16.18C62.6527 16.18 61.7194 15.9467 60.8794 15.48C60.0527 15.0133 59.3994 14.3533 58.9194 13.5C58.4527 12.6333 58.2194 11.6333 58.2194 10.5C58.2194 9.38 58.4594 8.39333 58.9394 7.54C59.4327 6.67333 60.0994 6.01333 60.9394 5.56C61.7794 5.09333 62.7194 4.86 63.7594 4.86C64.7994 4.86 65.7394 5.09333 66.5794 5.56C67.4194 6.01333 68.0794 6.66667 68.5594 7.52C69.0527 8.37333 69.2994 9.36667 69.2994 10.5C69.2994 11.6333 69.046 12.6333 68.5394 13.5C68.046 14.3533 67.3727 15.0133 66.5194 15.48C65.666 15.9467 64.7194 16.18 63.6794 16.18ZM63.6794 14.58C64.3327 14.58 64.946 14.4267 65.5194 14.12C66.0927 13.8133 66.5527 13.3533 66.8994 12.74C67.2594 12.1267 67.4394 11.38 67.4394 10.5C67.4394 9.62 67.266 8.87333 66.9194 8.26C66.5727 7.64667 66.1194 7.19333 65.5594 6.9C64.9994 6.59333 64.3927 6.44 63.7394 6.44C63.0727 6.44 62.4594 6.59333 61.8994 6.9C61.3527 7.19333 60.9127 7.64667 60.5794 8.26C60.246 8.87333 60.0794 9.62 60.0794 10.5C60.0794 11.3933 60.2394 12.1467 60.5594 12.76C60.8927 13.3733 61.3327 13.8333 61.8794 14.14C62.426 14.4333 63.026 14.58 63.6794 14.58ZM73.5123 6.82C73.8323 6.19333 74.2857 5.70667 74.8723 5.36C75.4723 5.01333 76.199 4.84 77.0523 4.84V6.72H76.5723C74.5323 6.72 73.5123 7.82667 73.5123 10.04V16H71.6923V5.04H73.5123V6.82ZM85.0653 16.12C84.7186 16.12 84.4253 16 84.1853 15.76C83.9453 15.52 83.8253 15.2267 83.8253 14.88C83.8253 14.5333 83.9453 14.24 84.1853 14C84.4253 13.76 84.7186 13.64 85.0653 13.64C85.3986 13.64 85.6786 13.76 85.9053 14C86.1453 14.24 86.2653 14.5333 86.2653 14.88C86.2653 15.2267 86.1453 15.52 85.9053 15.76C85.6786 16 85.3986 16.12 85.0653 16.12ZM85.0653 7.56C84.7186 7.56 84.4253 7.44 84.1853 7.2C83.9453 6.96 83.8253 6.66667 83.8253 6.32C83.8253 5.97333 83.9453 5.68 84.1853 5.44C84.4253 5.2 84.7186 5.08 85.0653 5.08C85.3986 5.08 85.6786 5.2 85.9053 5.44C86.1453 5.68 86.2653 5.97333 86.2653 6.32C86.2653 6.66667 86.1453 6.96 85.9053 7.2C85.6786 7.44 85.3986 7.56 85.0653 7.56Z" fill="#333333"/>
<path d="M101.095 2.06V12.36C101.095 13.5067 100.742 14.4267 100.035 15.12C99.3285 15.8 98.3952 16.14 97.2352 16.14C96.0618 16.14 95.1218 15.7933 94.4152 15.1C93.7085 14.3933 93.3552 13.4333 93.3552 12.22H95.1752C95.1885 12.9 95.3618 13.4533 95.6952 13.88C96.0418 14.3067 96.5552 14.52 97.2352 14.52C97.9152 14.52 98.4218 14.32 98.7552 13.92C99.0885 13.5067 99.2552 12.9867 99.2552 12.36V2.06H101.095ZM109.461 16.18C108.434 16.18 107.501 15.9467 106.661 15.48C105.834 15.0133 105.181 14.3533 104.701 13.5C104.234 12.6333 104.001 11.6333 104.001 10.5C104.001 9.38 104.241 8.39333 104.721 7.54C105.214 6.67333 105.881 6.01333 106.721 5.56C107.561 5.09333 108.501 4.86 109.541 4.86C110.581 4.86 111.521 5.09333 112.361 5.56C113.201 6.01333 113.861 6.66667 114.341 7.52C114.834 8.37333 115.081 9.36667 115.081 10.5C115.081 11.6333 114.827 12.6333 114.321 13.5C113.827 14.3533 113.154 15.0133 112.301 15.48C111.447 15.9467 110.501 16.18 109.461 16.18ZM109.461 14.58C110.114 14.58 110.727 14.4267 111.301 14.12C111.874 13.8133 112.334 13.3533 112.681 12.74C113.041 12.1267 113.221 11.38 113.221 10.5C113.221 9.62 113.047 8.87333 112.701 8.26C112.354 7.64667 111.901 7.19333 111.341 6.9C110.781 6.59333 110.174 6.44 109.521 6.44C108.854 6.44 108.241 6.59333 107.681 6.9C107.134 7.19333 106.694 7.64667 106.361 8.26C106.027 8.87333 105.861 9.62 105.861 10.5C105.861 11.3933 106.021 12.1467 106.341 12.76C106.674 13.3733 107.114 13.8333 107.661 14.14C108.207 14.4333 108.807 14.58 109.461 14.58ZM121.354 16.18C120.514 16.18 119.76 16.04 119.094 15.76C118.427 15.4667 117.9 15.0667 117.514 14.56C117.127 14.04 116.914 13.4467 116.874 12.78H118.754C118.807 13.3267 119.06 13.7733 119.514 14.12C119.98 14.4667 120.587 14.64 121.334 14.64C122.027 14.64 122.574 14.4867 122.974 14.18C123.374 13.8733 123.574 13.4867 123.574 13.02C123.574 12.54 123.36 12.1867 122.934 11.96C122.507 11.72 121.847 11.4867 120.954 11.26C120.14 11.0467 119.474 10.8333 118.954 10.62C118.447 10.3933 118.007 10.0667 117.634 9.64C117.274 9.2 117.094 8.62667 117.094 7.92C117.094 7.36 117.26 6.84667 117.594 6.38C117.927 5.91333 118.4 5.54667 119.014 5.28C119.627 5 120.327 4.86 121.114 4.86C122.327 4.86 123.307 5.16667 124.054 5.78C124.8 6.39333 125.2 7.23333 125.254 8.3H123.434C123.394 7.72667 123.16 7.26667 122.734 6.92C122.32 6.57333 121.76 6.4 121.054 6.4C120.4 6.4 119.88 6.54 119.494 6.82C119.107 7.1 118.914 7.46667 118.914 7.92C118.914 8.28 119.027 8.58 119.254 8.82C119.494 9.04667 119.787 9.23333 120.134 9.38C120.494 9.51333 120.987 9.66667 121.614 9.84C122.4 10.0533 123.04 10.2667 123.534 10.48C124.027 10.68 124.447 10.9867 124.794 11.4C125.154 11.8133 125.34 12.3533 125.354 13.02C125.354 13.62 125.187 14.16 124.854 14.64C124.52 15.12 124.047 15.5 123.434 15.78C122.834 16.0467 122.14 16.18 121.354 16.18ZM137.923 10.1C137.923 10.4467 137.903 10.8133 137.863 11.2H129.103C129.169 12.28 129.536 13.1267 130.203 13.74C130.883 14.34 131.703 14.64 132.663 14.64C133.449 14.64 134.103 14.46 134.623 14.1C135.156 13.7267 135.529 13.2333 135.743 12.62H137.703C137.409 13.6733 136.823 14.5333 135.943 15.2C135.063 15.8533 133.969 16.18 132.663 16.18C131.623 16.18 130.689 15.9467 129.863 15.48C129.049 15.0133 128.409 14.3533 127.943 13.5C127.476 12.6333 127.243 11.6333 127.243 10.5C127.243 9.36667 127.469 8.37333 127.923 7.52C128.376 6.66667 129.009 6.01333 129.823 5.56C130.649 5.09333 131.596 4.86 132.663 4.86C133.703 4.86 134.623 5.08667 135.423 5.54C136.223 5.99333 136.836 6.62 137.263 7.42C137.703 8.20667 137.923 9.1 137.923 10.1ZM136.043 9.72C136.043 9.02667 135.889 8.43333 135.583 7.94C135.276 7.43333 134.856 7.05333 134.323 6.8C133.803 6.53333 133.223 6.4 132.583 6.4C131.663 6.4 130.876 6.69333 130.223 7.28C129.583 7.86667 129.216 8.68 129.123 9.72H136.043ZM142.145 7.06C142.505 6.43333 143.038 5.91333 143.745 5.5C144.465 5.07333 145.298 4.86 146.245 4.86C147.218 4.86 148.098 5.09333 148.885 5.56C149.685 6.02667 150.312 6.68667 150.765 7.54C151.218 8.38 151.445 9.36 151.445 10.48C151.445 11.5867 151.218 12.5733 150.765 13.44C150.312 14.3067 149.685 14.98 148.885 15.46C148.098 15.94 147.218 16.18 146.245 16.18C145.312 16.18 144.485 15.9733 143.765 15.56C143.058 15.1333 142.518 14.6067 142.145 13.98V21.2H140.325V5.04H142.145V7.06ZM149.585 10.48C149.585 9.65333 149.418 8.93333 149.085 8.32C148.752 7.70667 148.298 7.24 147.725 6.92C147.165 6.6 146.545 6.44 145.865 6.44C145.198 6.44 144.578 6.60667 144.005 6.94C143.445 7.26 142.992 7.73333 142.645 8.36C142.312 8.97333 142.145 9.68667 142.145 10.5C142.145 11.3267 142.312 12.0533 142.645 12.68C142.992 13.2933 143.445 13.7667 144.005 14.1C144.578 14.42 145.198 14.58 145.865 14.58C146.545 14.58 147.165 14.42 147.725 14.1C148.298 13.7667 148.752 13.2933 149.085 12.68C149.418 12.0533 149.585 11.32 149.585 10.48ZM159.281 4.84C160.107 4.84 160.854 5.02 161.521 5.38C162.187 5.72667 162.707 6.25333 163.081 6.96C163.467 7.66667 163.661 8.52667 163.661 9.54V16H161.861V9.8C161.861 8.70667 161.587 7.87333 161.041 7.3C160.494 6.71333 159.747 6.42 158.801 6.42C157.841 6.42 157.074 6.72 156.501 7.32C155.941 7.92 155.661 8.79333 155.661 9.94V16H153.841V1.2H155.661V6.6C156.021 6.04 156.514 5.60667 157.141 5.3C157.781 4.99333 158.494 4.84 159.281 4.84ZM179.526 16L173.786 9.64V16H171.966V2.06H173.786V8.52L179.546 2.06H181.846L175.526 9.04L181.906 16H179.526ZM188.718 16.18C187.692 16.18 186.758 15.9467 185.918 15.48C185.092 15.0133 184.438 14.3533 183.958 13.5C183.492 12.6333 183.258 11.6333 183.258 10.5C183.258 9.38 183.498 8.39333 183.978 7.54C184.472 6.67333 185.138 6.01333 185.978 5.56C186.818 5.09333 187.758 4.86 188.798 4.86C189.838 4.86 190.778 5.09333 191.618 5.56C192.458 6.01333 193.118 6.66667 193.598 7.52C194.092 8.37333 194.338 9.36667 194.338 10.5C194.338 11.6333 194.085 12.6333 193.578 13.5C193.085 14.3533 192.412 15.0133 191.558 15.48C190.705 15.9467 189.758 16.18 188.718 16.18ZM188.718 14.58C189.372 14.58 189.985 14.4267 190.558 14.12C191.132 13.8133 191.592 13.3533 191.938 12.74C192.298 12.1267 192.478 11.38 192.478 10.5C192.478 9.62 192.305 8.87333 191.958 8.26C191.612 7.64667 191.158 7.19333 190.598 6.9C190.038 6.59333 189.432 6.44 188.778 6.44C188.112 6.44 187.498 6.59333 186.938 6.9C186.392 7.19333 185.952 7.64667 185.618 8.26C185.285 8.87333 185.118 9.62 185.118 10.5C185.118 11.3933 185.278 12.1467 185.598 12.76C185.932 13.3733 186.372 13.8333 186.918 14.14C187.465 14.4333 188.065 14.58 188.718 14.58ZM200.611 16.18C199.771 16.18 199.018 16.04 198.351 15.76C197.685 15.4667 197.158 15.0667 196.771 14.56C196.385 14.04 196.171 13.4467 196.131 12.78H198.011C198.065 13.3267 198.318 13.7733 198.771 14.12C199.238 14.4667 199.845 14.64 200.591 14.64C201.285 14.64 201.831 14.4867 202.231 14.18C202.631 13.8733 202.831 13.4867 202.831 13.02C202.831 12.54 202.618 12.1867 202.191 11.96C201.765 11.72 201.105 11.4867 200.211 11.26C199.398 11.0467 198.731 10.8333 198.211 10.62C197.705 10.3933 197.265 10.0667 196.891 9.64C196.531 9.2 196.351 8.62667 196.351 7.92C196.351 7.36 196.518 6.84667 196.851 6.38C197.185 5.91333 197.658 5.54667 198.271 5.28C198.885 5 199.585 4.86 200.371 4.86C201.585 4.86 202.565 5.16667 203.311 5.78C204.058 6.39333 204.458 7.23333 204.511 8.3H202.691C202.651 7.72667 202.418 7.26667 201.991 6.92C201.578 6.57333 201.018 6.4 200.311 6.4C199.658 6.4 199.138 6.54 198.751 6.82C198.365 7.1 198.171 7.46667 198.171 7.92C198.171 8.28 198.285 8.58 198.511 8.82C198.751 9.04667 199.045 9.23333 199.391 9.38C199.751 9.51333 200.245 9.66667 200.871 9.84C201.658 10.0533 202.298 10.2667 202.791 10.48C203.285 10.68 203.705 10.9867 204.051 11.4C204.411 11.8133 204.598 12.3533 204.611 13.02C204.611 13.62 204.445 14.16 204.111 14.64C203.778 15.12 203.305 15.5 202.691 15.78C202.091 16.0467 201.398 16.18 200.611 16.18ZM208.121 3.26C207.774 3.26 207.481 3.14 207.241 2.9C207.001 2.66 206.881 2.36667 206.881 2.02C206.881 1.67333 207.001 1.38 207.241 1.14C207.481 0.899999 207.774 0.779999 208.121 0.779999C208.454 0.779999 208.734 0.899999 208.961 1.14C209.201 1.38 209.321 1.67333 209.321 2.02C209.321 2.36667 209.201 2.66 208.961 2.9C208.734 3.14 208.454 3.26 208.121 3.26ZM209.001 5.04V16H207.181V5.04H209.001ZM217.443 4.84C218.776 4.84 219.856 5.24667 220.683 6.06C221.509 6.86 221.923 8.02 221.923 9.54V16H220.123V9.8C220.123 8.70667 219.849 7.87333 219.303 7.3C218.756 6.71333 218.009 6.42 217.063 6.42C216.103 6.42 215.336 6.72 214.763 7.32C214.203 7.92 213.923 8.79333 213.923 9.94V16H212.103V5.04H213.923V6.6C214.283 6.04 214.769 5.60667 215.383 5.3C216.009 4.99333 216.696 4.84 217.443 4.84ZM228.775 16.18C227.935 16.18 227.182 16.04 226.515 15.76C225.849 15.4667 225.322 15.0667 224.935 14.56C224.549 14.04 224.335 13.4467 224.295 12.78H226.175C226.229 13.3267 226.482 13.7733 226.935 14.12C227.402 14.4667 228.009 14.64 228.755 14.64C229.449 14.64 229.995 14.4867 230.395 14.18C230.795 13.8733 230.995 13.4867 230.995 13.02C230.995 12.54 230.782 12.1867 230.355 11.96C229.929 11.72 229.269 11.4867 228.375 11.26C227.562 11.0467 226.895 10.8333 226.375 10.62C225.869 10.3933 225.429 10.0667 225.055 9.64C224.695 9.2 224.515 8.62667 224.515 7.92C224.515 7.36 224.682 6.84667 225.015 6.38C225.349 5.91333 225.822 5.54667 226.435 5.28C227.049 5 227.749 4.86 228.535 4.86C229.749 4.86 230.729 5.16667 231.475 5.78C232.222 6.39333 232.622 7.23333 232.675 8.3H230.855C230.815 7.72667 230.582 7.26667 230.155 6.92C229.742 6.57333 229.182 6.4 228.475 6.4C227.822 6.4 227.302 6.54 226.915 6.82C226.529 7.1 226.335 7.46667 226.335 7.92C226.335 8.28 226.449 8.58 226.675 8.82C226.915 9.04667 227.209 9.23333 227.555 9.38C227.915 9.51333 228.409 9.66667 229.035 9.84C229.822 10.0533 230.462 10.2667 230.955 10.48C231.449 10.68 231.869 10.9867 232.215 11.4C232.575 11.8133 232.762 12.3533 232.775 13.02C232.775 13.62 232.609 14.16 232.275 14.64C231.942 15.12 231.469 15.5 230.855 15.78C230.255 16.0467 229.562 16.18 228.775 16.18ZM241.465 16L237.165 11.16V16H235.345V1.2H237.165V9.9L241.385 5.04H243.925L238.765 10.5L243.945 16H241.465ZM246.578 3.26C246.231 3.26 245.938 3.14 245.698 2.9C245.458 2.66 245.338 2.36667 245.338 2.02C245.338 1.67333 245.458 1.38 245.698 1.14C245.938 0.899999 246.231 0.779999 246.578 0.779999C246.911 0.779999 247.191 0.899999 247.418 1.14C247.658 1.38 247.778 1.67333 247.778 2.02C247.778 2.36667 247.658 2.66 247.418 2.9C247.191 3.14 246.911 3.26 246.578 3.26ZM247.458 5.04V16H245.638V5.04H247.458Z" fill="#BE123C"/>
</svg>
