<svg width="477" height="22" viewBox="0 0 477 22" fill="none" xmlns="http://www.w3.org/2000/svg">
<path d="M4.96 16.14C4.04 16.14 3.21333 15.98 2.48 15.66C1.76 15.3267 1.19333 14.8733 0.78 14.3C0.366667 13.7133 0.153333 13.04 0.14 12.28H2.08C2.14667 12.9333 2.41333 13.4867 2.88 13.94C3.36 14.38 4.05333 14.6 4.96 14.6C5.82667 14.6 6.50667 14.3867 7 13.96C7.50667 13.52 7.76 12.96 7.76 12.28C7.76 11.7467 7.61333 11.3133 7.32 10.98C7.02667 10.6467 6.66 10.3933 6.22 10.22C5.78 10.0467 5.18667 9.86 4.44 9.66C3.52 9.42 2.78 9.18 2.22 8.94C1.67333 8.7 1.2 8.32667 0.8 7.82C0.413333 7.3 0.22 6.60667 0.22 5.74C0.22 4.98 0.413333 4.30667 0.8 3.72C1.18667 3.13333 1.72667 2.68 2.42 2.36C3.12667 2.04 3.93333 1.88 4.84 1.88C6.14667 1.88 7.21333 2.20667 8.04 2.86C8.88 3.51333 9.35333 4.38 9.46 5.46H7.46C7.39333 4.92667 7.11333 4.46 6.62 4.06C6.12667 3.64667 5.47333 3.44 4.66 3.44C3.9 3.44 3.28 3.64 2.8 4.04C2.32 4.42667 2.08 4.97333 2.08 5.68C2.08 6.18667 2.22 6.6 2.5 6.92C2.79333 7.24 3.14667 7.48667 3.56 7.66C3.98667 7.82 4.58 8.00667 5.34 8.22C6.26 8.47333 7 8.72667 7.56 8.98C8.12 9.22 8.6 9.6 9 10.12C9.4 10.6267 9.6 11.32 9.6 12.2C9.6 12.88 9.42 13.52 9.06 14.12C8.7 14.72 8.16667 15.2067 7.46 15.58C6.75333 15.9533 5.92 16.14 4.96 16.14ZM14.4983 6.54V13C14.4983 13.5333 14.6116 13.9133 14.8383 14.14C15.0649 14.3533 15.4583 14.46 16.0183 14.46H17.3583V16H15.7183C14.7049 16 13.9449 15.7667 13.4383 15.3C12.9316 14.8333 12.6783 14.0667 12.6783 13V6.54H11.2583V5.04H12.6783V2.28H14.4983V5.04H17.3583V6.54H14.4983ZM18.8834 10.48C18.8834 9.36 19.1101 8.38 19.5634 7.54C20.0168 6.68667 20.6368 6.02667 21.4234 5.56C22.2234 5.09333 23.1101 4.86 24.0834 4.86C25.0434 4.86 25.8768 5.06667 26.5834 5.48C27.2901 5.89333 27.8168 6.41333 28.1634 7.04V5.04H30.0034V16H28.1634V13.96C27.8034 14.6 27.2634 15.1333 26.5434 15.56C25.8368 15.9733 25.0101 16.18 24.0634 16.18C23.0901 16.18 22.2101 15.94 21.4234 15.46C20.6368 14.98 20.0168 14.3067 19.5634 13.44C19.1101 12.5733 18.8834 11.5867 18.8834 10.48ZM28.1634 10.5C28.1634 9.67333 27.9968 8.95333 27.6634 8.34C27.3301 7.72667 26.8768 7.26 26.3034 6.94C25.7434 6.60667 25.1234 6.44 24.4434 6.44C23.7634 6.44 23.1434 6.6 22.5834 6.92C22.0234 7.24 21.5768 7.70667 21.2434 8.32C20.9101 8.93333 20.7434 9.65333 20.7434 10.48C20.7434 11.32 20.9101 12.0533 21.2434 12.68C21.5768 13.2933 22.0234 13.7667 22.5834 14.1C23.1434 14.42 23.7634 14.58 24.4434 14.58C25.1234 14.58 25.7434 14.42 26.3034 14.1C26.8768 13.7667 27.3301 13.2933 27.6634 12.68C27.9968 12.0533 28.1634 11.3267 28.1634 10.5ZM34.8991 6.82C35.2191 6.19333 35.6724 5.70667 36.2591 5.36C36.8591 5.01333 37.5857 4.84 38.4391 4.84V6.72H37.9591C35.9191 6.72 34.8991 7.82667 34.8991 10.04V16H33.0791V5.04H34.8991V6.82ZM44.42 16.18C43.58 16.18 42.8267 16.04 42.16 15.76C41.4933 15.4667 40.9667 15.0667 40.58 14.56C40.1933 14.04 39.98 13.4467 39.94 12.78H41.82C41.8733 13.3267 42.1267 13.7733 42.58 14.12C43.0467 14.4667 43.6533 14.64 44.4 14.64C45.0933 14.64 45.64 14.4867 46.04 14.18C46.44 13.8733 46.64 13.4867 46.64 13.02C46.64 12.54 46.4267 12.1867 46 11.96C45.5733 11.72 44.9133 11.4867 44.02 11.26C43.2067 11.0467 42.54 10.8333 42.02 10.62C41.5133 10.3933 41.0733 10.0667 40.7 9.64C40.34 9.2 40.16 8.62667 40.16 7.92C40.16 7.36 40.3267 6.84667 40.66 6.38C40.9933 5.91333 41.4667 5.54667 42.08 5.28C42.6933 5 43.3933 4.86 44.18 4.86C45.3933 4.86 46.3733 5.16667 47.12 5.78C47.8667 6.39333 48.2667 7.23333 48.32 8.3H46.5C46.46 7.72667 46.2267 7.26667 45.8 6.92C45.3867 6.57333 44.8267 6.4 44.12 6.4C43.4667 6.4 42.9467 6.54 42.56 6.82C42.1733 7.1 41.98 7.46667 41.98 7.92C41.98 8.28 42.0933 8.58 42.32 8.82C42.56 9.04667 42.8533 9.23333 43.2 9.38C43.56 9.51333 44.0533 9.66667 44.68 9.84C45.4667 10.0533 46.1067 10.2667 46.6 10.48C47.0933 10.68 47.5133 10.9867 47.86 11.4C48.22 11.8133 48.4067 12.3533 48.42 13.02C48.42 13.62 48.2533 14.16 47.92 14.64C47.5867 15.12 47.1133 15.5 46.5 15.78C45.9 16.0467 45.2067 16.18 44.42 16.18ZM56.9013 16.12C56.5546 16.12 56.2613 16 56.0213 15.76C55.7813 15.52 55.6613 15.2267 55.6613 14.88C55.6613 14.5333 55.7813 14.24 56.0213 14C56.2613 13.76 56.5546 13.64 56.9013 13.64C57.2346 13.64 57.5146 13.76 57.7413 14C57.9813 14.24 58.1013 14.5333 58.1013 14.88C58.1013 15.2267 57.9813 15.52 57.7413 15.76C57.5146 16 57.2346 16.12 56.9013 16.12ZM56.9013 7.56C56.5546 7.56 56.2613 7.44 56.0213 7.2C55.7813 6.96 55.6613 6.66667 55.6613 6.32C55.6613 5.97333 55.7813 5.68 56.0213 5.44C56.2613 5.2 56.5546 5.08 56.9013 5.08C57.2346 5.08 57.5146 5.2 57.7413 5.44C57.9813 5.68 58.1013 5.97333 58.1013 6.32C58.1013 6.66667 57.9813 6.96 57.7413 7.2C57.5146 7.44 57.2346 7.56 56.9013 7.56Z" fill="#333333"/>
<path d="M74.4911 2.06V3.54H70.6911V16H68.8711V3.54H65.0511V2.06H74.4911ZM81.5114 16.18C80.4847 16.18 79.5514 15.9467 78.7114 15.48C77.8847 15.0133 77.2314 14.3533 76.7514 13.5C76.2847 12.6333 76.0514 11.6333 76.0514 10.5C76.0514 9.38 76.2914 8.39333 76.7714 7.54C77.2647 6.67333 77.9314 6.01333 78.7714 5.56C79.6114 5.09333 80.5514 4.86 81.5914 4.86C82.6314 4.86 83.5714 5.09333 84.4114 5.56C85.2514 6.01333 85.9114 6.66667 86.3914 7.52C86.8847 8.37333 87.1314 9.36667 87.1314 10.5C87.1314 11.6333 86.8781 12.6333 86.3714 13.5C85.8781 14.3533 85.2047 15.0133 84.3514 15.48C83.4981 15.9467 82.5514 16.18 81.5114 16.18ZM81.5114 14.58C82.1647 14.58 82.7781 14.4267 83.3514 14.12C83.9247 13.8133 84.3847 13.3533 84.7314 12.74C85.0914 12.1267 85.2714 11.38 85.2714 10.5C85.2714 9.62 85.0981 8.87333 84.7514 8.26C84.4047 7.64667 83.9514 7.19333 83.3914 6.9C82.8314 6.59333 82.2247 6.44 81.5714 6.44C80.9047 6.44 80.2914 6.59333 79.7314 6.9C79.1847 7.19333 78.7447 7.64667 78.4114 8.26C78.0781 8.87333 77.9114 9.62 77.9114 10.5C77.9114 11.3933 78.0714 12.1467 78.3914 12.76C78.7247 13.3733 79.1647 13.8333 79.7114 14.14C80.2581 14.4333 80.8581 14.58 81.5114 14.58ZM102.704 4.84C103.558 4.84 104.318 5.02 104.984 5.38C105.651 5.72667 106.178 6.25333 106.564 6.96C106.951 7.66667 107.144 8.52667 107.144 9.54V16H105.344V9.8C105.344 8.70667 105.071 7.87333 104.524 7.3C103.991 6.71333 103.264 6.42 102.344 6.42C101.398 6.42 100.644 6.72667 100.084 7.34C99.5244 7.94 99.2444 8.81333 99.2444 9.96V16H97.4444V9.8C97.4444 8.70667 97.171 7.87333 96.6244 7.3C96.091 6.71333 95.3644 6.42 94.4444 6.42C93.4977 6.42 92.7444 6.72667 92.1844 7.34C91.6244 7.94 91.3444 8.81333 91.3444 9.96V16H89.5244V5.04H91.3444V6.62C91.7044 6.04667 92.1844 5.60667 92.7844 5.3C93.3977 4.99333 94.071 4.84 94.8044 4.84C95.7244 4.84 96.5377 5.04667 97.2444 5.46C97.951 5.87333 98.4777 6.48 98.8244 7.28C99.131 6.50667 99.6377 5.90667 100.344 5.48C101.051 5.05333 101.838 4.84 102.704 4.84ZM114.782 9.02C114.782 7.66 115.089 6.44 115.702 5.36C116.315 4.26667 117.149 3.41333 118.202 2.8C119.269 2.18667 120.449 1.88 121.742 1.88C123.262 1.88 124.589 2.24667 125.722 2.98C126.855 3.71333 127.682 4.75333 128.202 6.1H126.022C125.635 5.26 125.075 4.61333 124.342 4.16C123.622 3.70667 122.755 3.48 121.742 3.48C120.769 3.48 119.895 3.70667 119.122 4.16C118.349 4.61333 117.742 5.26 117.302 6.1C116.862 6.92667 116.642 7.9 116.642 9.02C116.642 10.1267 116.862 11.1 117.302 11.94C117.742 12.7667 118.349 13.4067 119.122 13.86C119.895 14.3133 120.769 14.54 121.742 14.54C122.755 14.54 123.622 14.32 124.342 13.88C125.075 13.4267 125.635 12.78 126.022 11.94H128.202C127.682 13.2733 126.855 14.3067 125.722 15.04C124.589 15.76 123.262 16.12 121.742 16.12C120.449 16.12 119.269 15.82 118.202 15.22C117.149 14.6067 116.315 13.76 115.702 12.68C115.089 11.6 114.782 10.38 114.782 9.02ZM132.731 6.82C133.051 6.19333 133.504 5.70667 134.091 5.36C134.691 5.01333 135.418 4.84 136.271 4.84V6.72H135.791C133.751 6.72 132.731 7.82667 132.731 10.04V16H130.911V5.04H132.731V6.82ZM148.092 5.04V16H146.272V14.38C145.925 14.94 145.439 15.38 144.812 15.7C144.199 16.0067 143.519 16.16 142.772 16.16C141.919 16.16 141.152 15.9867 140.472 15.64C139.792 15.28 139.252 14.7467 138.852 14.04C138.465 13.3333 138.272 12.4733 138.272 11.46V5.04H140.072V11.22C140.072 12.3 140.345 13.1333 140.892 13.72C141.439 14.2933 142.185 14.58 143.132 14.58C144.105 14.58 144.872 14.28 145.432 13.68C145.992 13.08 146.272 12.2067 146.272 11.06V5.04H148.092ZM152.105 3.26C151.758 3.26 151.465 3.14 151.225 2.9C150.985 2.66 150.865 2.36667 150.865 2.02C150.865 1.67333 150.985 1.38 151.225 1.14C151.465 0.899999 151.758 0.779999 152.105 0.779999C152.438 0.779999 152.718 0.899999 152.945 1.14C153.185 1.38 153.305 1.67333 153.305 2.02C153.305 2.36667 153.185 2.66 152.945 2.9C152.718 3.14 152.438 3.26 152.105 3.26ZM152.985 5.04V16H151.165V5.04H152.985ZM159.967 16.18C159.127 16.18 158.374 16.04 157.707 15.76C157.04 15.4667 156.514 15.0667 156.127 14.56C155.74 14.04 155.527 13.4467 155.487 12.78H157.367C157.42 13.3267 157.674 13.7733 158.127 14.12C158.594 14.4667 159.2 14.64 159.947 14.64C160.64 14.64 161.187 14.4867 161.587 14.18C161.987 13.8733 162.187 13.4867 162.187 13.02C162.187 12.54 161.974 12.1867 161.547 11.96C161.12 11.72 160.46 11.4867 159.567 11.26C158.754 11.0467 158.087 10.8333 157.567 10.62C157.06 10.3933 156.62 10.0667 156.247 9.64C155.887 9.2 155.707 8.62667 155.707 7.92C155.707 7.36 155.874 6.84667 156.207 6.38C156.54 5.91333 157.014 5.54667 157.627 5.28C158.24 5 158.94 4.86 159.727 4.86C160.94 4.86 161.92 5.16667 162.667 5.78C163.414 6.39333 163.814 7.23333 163.867 8.3H162.047C162.007 7.72667 161.774 7.26667 161.347 6.92C160.934 6.57333 160.374 6.4 159.667 6.4C159.014 6.4 158.494 6.54 158.107 6.82C157.72 7.1 157.527 7.46667 157.527 7.92C157.527 8.28 157.64 8.58 157.867 8.82C158.107 9.04667 158.4 9.23333 158.747 9.38C159.107 9.51333 159.6 9.66667 160.227 9.84C161.014 10.0533 161.654 10.2667 162.147 10.48C162.64 10.68 163.06 10.9867 163.407 11.4C163.767 11.8133 163.954 12.3533 163.967 13.02C163.967 13.62 163.8 14.16 163.467 14.64C163.134 15.12 162.66 15.5 162.047 15.78C161.447 16.0467 160.754 16.18 159.967 16.18ZM176.536 10.1C176.536 10.4467 176.516 10.8133 176.476 11.2H167.716C167.783 12.28 168.149 13.1267 168.816 13.74C169.496 14.34 170.316 14.64 171.276 14.64C172.063 14.64 172.716 14.46 173.236 14.1C173.769 13.7267 174.143 13.2333 174.356 12.62H176.316C176.023 13.6733 175.436 14.5333 174.556 15.2C173.676 15.8533 172.583 16.18 171.276 16.18C170.236 16.18 169.303 15.9467 168.476 15.48C167.663 15.0133 167.023 14.3533 166.556 13.5C166.089 12.6333 165.856 11.6333 165.856 10.5C165.856 9.36667 166.083 8.37333 166.536 7.52C166.989 6.66667 167.623 6.01333 168.436 5.56C169.263 5.09333 170.209 4.86 171.276 4.86C172.316 4.86 173.236 5.08667 174.036 5.54C174.836 5.99333 175.449 6.62 175.876 7.42C176.316 8.20667 176.536 9.1 176.536 10.1ZM174.656 9.72C174.656 9.02667 174.503 8.43333 174.196 7.94C173.889 7.43333 173.469 7.05333 172.936 6.8C172.416 6.53333 171.836 6.4 171.196 6.4C170.276 6.4 169.489 6.69333 168.836 7.28C168.196 7.86667 167.829 8.68 167.736 9.72H174.656ZM180.818 13.48L178.578 18.86H177.358L178.818 13.48H180.818ZM195.255 2.06V12.36C195.255 13.5067 194.902 14.4267 194.195 15.12C193.489 15.8 192.555 16.14 191.395 16.14C190.222 16.14 189.282 15.7933 188.575 15.1C187.869 14.3933 187.515 13.4333 187.515 12.22H189.335C189.349 12.9 189.522 13.4533 189.855 13.88C190.202 14.3067 190.715 14.52 191.395 14.52C192.075 14.52 192.582 14.32 192.915 13.92C193.249 13.5067 193.415 12.9867 193.415 12.36V2.06H195.255ZM208.841 10.1C208.841 10.4467 208.821 10.8133 208.781 11.2H200.021C200.087 12.28 200.454 13.1267 201.121 13.74C201.801 14.34 202.621 14.64 203.581 14.64C204.367 14.64 205.021 14.46 205.541 14.1C206.074 13.7267 206.447 13.2333 206.661 12.62H208.621C208.327 13.6733 207.741 14.5333 206.861 15.2C205.981 15.8533 204.887 16.18 203.581 16.18C202.541 16.18 201.607 15.9467 200.781 15.48C199.967 15.0133 199.327 14.3533 198.861 13.5C198.394 12.6333 198.161 11.6333 198.161 10.5C198.161 9.36667 198.387 8.37333 198.841 7.52C199.294 6.66667 199.927 6.01333 200.741 5.56C201.567 5.09333 202.514 4.86 203.581 4.86C204.621 4.86 205.541 5.08667 206.341 5.54C207.141 5.99333 207.754 6.62 208.181 7.42C208.621 8.20667 208.841 9.1 208.841 10.1ZM206.961 9.72C206.961 9.02667 206.807 8.43333 206.501 7.94C206.194 7.43333 205.774 7.05333 205.241 6.8C204.721 6.53333 204.141 6.4 203.501 6.4C202.581 6.4 201.794 6.69333 201.141 7.28C200.501 7.86667 200.134 8.68 200.041 9.72H206.961ZM216.583 4.84C217.916 4.84 218.996 5.24667 219.823 6.06C220.65 6.86 221.063 8.02 221.063 9.54V16H219.263V9.8C219.263 8.70667 218.99 7.87333 218.443 7.3C217.896 6.71333 217.15 6.42 216.203 6.42C215.243 6.42 214.476 6.72 213.903 7.32C213.343 7.92 213.063 8.79333 213.063 9.94V16H211.243V5.04H213.063V6.6C213.423 6.04 213.91 5.60667 214.523 5.3C215.15 4.99333 215.836 4.84 216.583 4.84ZM229.376 4.84C230.709 4.84 231.789 5.24667 232.616 6.06C233.443 6.86 233.856 8.02 233.856 9.54V16H232.056V9.8C232.056 8.70667 231.783 7.87333 231.236 7.3C230.689 6.71333 229.943 6.42 228.996 6.42C228.036 6.42 227.269 6.72 226.696 7.32C226.136 7.92 225.856 8.79333 225.856 9.94V16H224.036V5.04H225.856V6.6C226.216 6.04 226.703 5.60667 227.316 5.3C227.943 4.99333 228.629 4.84 229.376 4.84ZM237.769 3.26C237.422 3.26 237.129 3.14 236.889 2.9C236.649 2.66 236.529 2.36667 236.529 2.02C236.529 1.67333 236.649 1.38 236.889 1.14C237.129 0.899999 237.422 0.779999 237.769 0.779999C238.102 0.779999 238.382 0.899999 238.609 1.14C238.849 1.38 238.969 1.67333 238.969 2.02C238.969 2.36667 238.849 2.66 238.609 2.9C238.382 3.14 238.102 3.26 237.769 3.26ZM238.649 5.04V16H236.829V5.04H238.649ZM246.211 6.54H243.911V16H242.091V6.54H240.671V5.04H242.091V4.26C242.091 3.03333 242.404 2.14 243.031 1.58C243.671 1.00667 244.691 0.719999 246.091 0.719999V2.24C245.291 2.24 244.724 2.4 244.391 2.72C244.071 3.02667 243.911 3.54 243.911 4.26V5.04H246.211V6.54ZM258.333 10.1C258.333 10.4467 258.313 10.8133 258.273 11.2H249.513C249.58 12.28 249.946 13.1267 250.613 13.74C251.293 14.34 252.113 14.64 253.073 14.64C253.86 14.64 254.513 14.46 255.033 14.1C255.566 13.7267 255.94 13.2333 256.153 12.62H258.113C257.82 13.6733 257.233 14.5333 256.353 15.2C255.473 15.8533 254.38 16.18 253.073 16.18C252.033 16.18 251.1 15.9467 250.273 15.48C249.46 15.0133 248.82 14.3533 248.353 13.5C247.886 12.6333 247.653 11.6333 247.653 10.5C247.653 9.36667 247.88 8.37333 248.333 7.52C248.786 6.66667 249.42 6.01333 250.233 5.56C251.06 5.09333 252.006 4.86 253.073 4.86C254.113 4.86 255.033 5.08667 255.833 5.54C256.633 5.99333 257.246 6.62 257.673 7.42C258.113 8.20667 258.333 9.1 258.333 10.1ZM256.453 9.72C256.453 9.02667 256.3 8.43333 255.993 7.94C255.686 7.43333 255.266 7.05333 254.733 6.8C254.213 6.53333 253.633 6.4 252.993 6.4C252.073 6.4 251.286 6.69333 250.633 7.28C249.993 7.86667 249.626 8.68 249.533 9.72H256.453ZM262.555 6.82C262.875 6.19333 263.329 5.70667 263.915 5.36C264.515 5.01333 265.242 4.84 266.095 4.84V6.72H265.615C263.575 6.72 262.555 7.82667 262.555 10.04V16H260.735V5.04H262.555V6.82ZM272.848 9.02C272.848 7.66 273.155 6.44 273.768 5.36C274.382 4.26667 275.215 3.41333 276.268 2.8C277.335 2.18667 278.515 1.88 279.808 1.88C281.328 1.88 282.655 2.24667 283.788 2.98C284.922 3.71333 285.748 4.75333 286.268 6.1H284.088C283.702 5.26 283.142 4.61333 282.408 4.16C281.688 3.70667 280.822 3.48 279.808 3.48C278.835 3.48 277.962 3.70667 277.188 4.16C276.415 4.61333 275.808 5.26 275.368 6.1C274.928 6.92667 274.708 7.9 274.708 9.02C274.708 10.1267 274.928 11.1 275.368 11.94C275.808 12.7667 276.415 13.4067 277.188 13.86C277.962 14.3133 278.835 14.54 279.808 14.54C280.822 14.54 281.688 14.32 282.408 13.88C283.142 13.4267 283.702 12.78 284.088 11.94H286.268C285.748 13.2733 284.922 14.3067 283.788 15.04C282.655 15.76 281.328 16.12 279.808 16.12C278.515 16.12 277.335 15.82 276.268 15.22C275.215 14.6067 274.382 13.76 273.768 12.68C273.155 11.6 272.848 10.38 272.848 9.02ZM293.758 16.18C292.731 16.18 291.798 15.9467 290.958 15.48C290.131 15.0133 289.478 14.3533 288.998 13.5C288.531 12.6333 288.298 11.6333 288.298 10.5C288.298 9.38 288.538 8.39333 289.018 7.54C289.511 6.67333 290.178 6.01333 291.018 5.56C291.858 5.09333 292.798 4.86 293.838 4.86C294.878 4.86 295.818 5.09333 296.658 5.56C297.498 6.01333 298.158 6.66667 298.638 7.52C299.131 8.37333 299.378 9.36667 299.378 10.5C299.378 11.6333 299.124 12.6333 298.618 13.5C298.124 14.3533 297.451 15.0133 296.598 15.48C295.744 15.9467 294.798 16.18 293.758 16.18ZM293.758 14.58C294.411 14.58 295.024 14.4267 295.598 14.12C296.171 13.8133 296.631 13.3533 296.978 12.74C297.338 12.1267 297.518 11.38 297.518 10.5C297.518 9.62 297.344 8.87333 296.998 8.26C296.651 7.64667 296.198 7.19333 295.638 6.9C295.078 6.59333 294.471 6.44 293.818 6.44C293.151 6.44 292.538 6.59333 291.978 6.9C291.431 7.19333 290.991 7.64667 290.658 8.26C290.324 8.87333 290.158 9.62 290.158 10.5C290.158 11.3933 290.318 12.1467 290.638 12.76C290.971 13.3733 291.411 13.8333 291.958 14.14C292.504 14.4333 293.104 14.58 293.758 14.58ZM307.11 4.84C308.444 4.84 309.524 5.24667 310.35 6.06C311.177 6.86 311.59 8.02 311.59 9.54V16H309.79V9.8C309.79 8.70667 309.517 7.87333 308.97 7.3C308.424 6.71333 307.677 6.42 306.73 6.42C305.77 6.42 305.004 6.72 304.43 7.32C303.87 7.92 303.59 8.79333 303.59 9.94V16H301.77V5.04H303.59V6.6C303.95 6.04 304.437 5.60667 305.05 5.3C305.677 4.99333 306.364 4.84 307.11 4.84ZM319.903 4.84C321.237 4.84 322.317 5.24667 323.143 6.06C323.97 6.86 324.383 8.02 324.383 9.54V16H322.583V9.8C322.583 8.70667 322.31 7.87333 321.763 7.3C321.217 6.71333 320.47 6.42 319.523 6.42C318.563 6.42 317.797 6.72 317.223 7.32C316.663 7.92 316.383 8.79333 316.383 9.94V16H314.563V5.04H316.383V6.6C316.743 6.04 317.23 5.60667 317.843 5.3C318.47 4.99333 319.157 4.84 319.903 4.84ZM337.356 10.1C337.356 10.4467 337.336 10.8133 337.296 11.2H328.536C328.603 12.28 328.97 13.1267 329.636 13.74C330.316 14.34 331.136 14.64 332.096 14.64C332.883 14.64 333.536 14.46 334.056 14.1C334.59 13.7267 334.963 13.2333 335.176 12.62H337.136C336.843 13.6733 336.256 14.5333 335.376 15.2C334.496 15.8533 333.403 16.18 332.096 16.18C331.056 16.18 330.123 15.9467 329.296 15.48C328.483 15.0133 327.843 14.3533 327.376 13.5C326.91 12.6333 326.676 11.6333 326.676 10.5C326.676 9.36667 326.903 8.37333 327.356 7.52C327.81 6.66667 328.443 6.01333 329.256 5.56C330.083 5.09333 331.03 4.86 332.096 4.86C333.136 4.86 334.056 5.08667 334.856 5.54C335.656 5.99333 336.27 6.62 336.696 7.42C337.136 8.20667 337.356 9.1 337.356 10.1ZM335.476 9.72C335.476 9.02667 335.323 8.43333 335.016 7.94C334.71 7.43333 334.29 7.05333 333.756 6.8C333.236 6.53333 332.656 6.4 332.016 6.4C331.096 6.4 330.31 6.69333 329.656 7.28C329.016 7.86667 328.65 8.68 328.556 9.72H335.476ZM341.579 1.2V16H339.759V1.2H341.579ZM346.501 1.2V16H344.681V1.2H346.501ZM359.043 5.04L352.443 21.16H350.562L352.723 15.88L348.303 5.04H350.323L353.763 13.92L357.163 5.04H359.043ZM362.752 13.48L360.512 18.86H359.292L360.752 13.48H362.752ZM384.309 2.16V16H382.489V5.68L377.889 16H376.609L371.989 5.66V16H370.169V2.16H372.129L377.249 13.6L382.369 2.16H384.309ZM388.335 3.26C387.989 3.26 387.695 3.14 387.455 2.9C387.215 2.66 387.095 2.36667 387.095 2.02C387.095 1.67333 387.215 1.38 387.455 1.14C387.695 0.899999 387.989 0.779999 388.335 0.779999C388.669 0.779999 388.949 0.899999 389.175 1.14C389.415 1.38 389.535 1.67333 389.535 2.02C389.535 2.36667 389.415 2.66 389.175 2.9C388.949 3.14 388.669 3.26 388.335 3.26ZM389.215 5.04V16H387.395V5.04H389.215ZM394.137 1.2V16H392.317V1.2H394.137ZM407.239 10.1C407.239 10.4467 407.219 10.8133 407.179 11.2H398.419C398.486 12.28 398.853 13.1267 399.519 13.74C400.199 14.34 401.019 14.64 401.979 14.64C402.766 14.64 403.419 14.46 403.939 14.1C404.473 13.7267 404.846 13.2333 405.059 12.62H407.019C406.726 13.6733 406.139 14.5333 405.259 15.2C404.379 15.8533 403.286 16.18 401.979 16.18C400.939 16.18 400.006 15.9467 399.179 15.48C398.366 15.0133 397.726 14.3533 397.259 13.5C396.793 12.6333 396.559 11.6333 396.559 10.5C396.559 9.36667 396.786 8.37333 397.239 7.52C397.693 6.66667 398.326 6.01333 399.139 5.56C399.966 5.09333 400.913 4.86 401.979 4.86C403.019 4.86 403.939 5.08667 404.739 5.54C405.539 5.99333 406.153 6.62 406.579 7.42C407.019 8.20667 407.239 9.1 407.239 10.1ZM405.359 9.72C405.359 9.02667 405.206 8.43333 404.899 7.94C404.593 7.43333 404.173 7.05333 403.639 6.8C403.119 6.53333 402.539 6.4 401.899 6.4C400.979 6.4 400.193 6.69333 399.539 7.28C398.899 7.86667 398.533 8.68 398.439 9.72H405.359ZM413.522 16.18C412.682 16.18 411.928 16.04 411.262 15.76C410.595 15.4667 410.068 15.0667 409.682 14.56C409.295 14.04 409.082 13.4467 409.042 12.78H410.922C410.975 13.3267 411.228 13.7733 411.682 14.12C412.148 14.4667 412.755 14.64 413.502 14.64C414.195 14.64 414.742 14.4867 415.142 14.18C415.542 13.8733 415.742 13.4867 415.742 13.02C415.742 12.54 415.528 12.1867 415.102 11.96C414.675 11.72 414.015 11.4867 413.122 11.26C412.308 11.0467 411.642 10.8333 411.122 10.62C410.615 10.3933 410.175 10.0667 409.802 9.64C409.442 9.2 409.262 8.62667 409.262 7.92C409.262 7.36 409.428 6.84667 409.762 6.38C410.095 5.91333 410.568 5.54667 411.182 5.28C411.795 5 412.495 4.86 413.282 4.86C414.495 4.86 415.475 5.16667 416.222 5.78C416.968 6.39333 417.368 7.23333 417.422 8.3H415.602C415.562 7.72667 415.328 7.26667 414.902 6.92C414.488 6.57333 413.928 6.4 413.222 6.4C412.568 6.4 412.048 6.54 411.662 6.82C411.275 7.1 411.082 7.46667 411.082 7.92C411.082 8.28 411.195 8.58 411.422 8.82C411.662 9.04667 411.955 9.23333 412.302 9.38C412.662 9.51333 413.155 9.66667 413.782 9.84C414.568 10.0533 415.208 10.2667 415.702 10.48C416.195 10.68 416.615 10.9867 416.962 11.4C417.322 11.8133 417.508 12.3533 417.522 13.02C417.522 13.62 417.355 14.16 417.022 14.64C416.688 15.12 416.215 15.5 415.602 15.78C415.002 16.0467 414.308 16.18 413.522 16.18ZM434.003 2.06V3.54H430.203V16H428.383V3.54H424.563V2.06H434.003ZM446.243 10.1C446.243 10.4467 446.223 10.8133 446.183 11.2H437.423C437.49 12.28 437.856 13.1267 438.523 13.74C439.203 14.34 440.023 14.64 440.983 14.64C441.77 14.64 442.423 14.46 442.943 14.1C443.476 13.7267 443.85 13.2333 444.063 12.62H446.023C445.73 13.6733 445.143 14.5333 444.263 15.2C443.383 15.8533 442.29 16.18 440.983 16.18C439.943 16.18 439.01 15.9467 438.183 15.48C437.37 15.0133 436.73 14.3533 436.263 13.5C435.796 12.6333 435.563 11.6333 435.563 10.5C435.563 9.36667 435.79 8.37333 436.243 7.52C436.696 6.66667 437.33 6.01333 438.143 5.56C438.97 5.09333 439.916 4.86 440.983 4.86C442.023 4.86 442.943 5.08667 443.743 5.54C444.543 5.99333 445.156 6.62 445.583 7.42C446.023 8.20667 446.243 9.1 446.243 10.1ZM444.363 9.72C444.363 9.02667 444.21 8.43333 443.903 7.94C443.596 7.43333 443.176 7.05333 442.643 6.8C442.123 6.53333 441.543 6.4 440.903 6.4C439.983 6.4 439.196 6.69333 438.543 7.28C437.903 7.86667 437.536 8.68 437.443 9.72H444.363ZM450.465 1.2V16H448.645V1.2H450.465ZM455.387 1.2V16H453.567V1.2H455.387ZM468.489 10.1C468.489 10.4467 468.469 10.8133 468.429 11.2H459.669C459.736 12.28 460.103 13.1267 460.769 13.74C461.449 14.34 462.269 14.64 463.229 14.64C464.016 14.64 464.669 14.46 465.189 14.1C465.723 13.7267 466.096 13.2333 466.309 12.62H468.269C467.976 13.6733 467.389 14.5333 466.509 15.2C465.629 15.8533 464.536 16.18 463.229 16.18C462.189 16.18 461.256 15.9467 460.429 15.48C459.616 15.0133 458.976 14.3533 458.509 13.5C458.043 12.6333 457.809 11.6333 457.809 10.5C457.809 9.36667 458.036 8.37333 458.489 7.52C458.943 6.66667 459.576 6.01333 460.389 5.56C461.216 5.09333 462.163 4.86 463.229 4.86C464.269 4.86 465.189 5.08667 465.989 5.54C466.789 5.99333 467.403 6.62 467.829 7.42C468.269 8.20667 468.489 9.1 468.489 10.1ZM466.609 9.72C466.609 9.02667 466.456 8.43333 466.149 7.94C465.843 7.43333 465.423 7.05333 464.889 6.8C464.369 6.53333 463.789 6.4 463.149 6.4C462.229 6.4 461.443 6.69333 460.789 7.28C460.149 7.86667 459.783 8.68 459.689 9.72H466.609ZM472.712 6.82C473.032 6.19333 473.485 5.70667 474.072 5.36C474.672 5.01333 475.398 4.84 476.252 4.84V6.72H475.772C473.732 6.72 472.712 7.82667 472.712 10.04V16H470.892V5.04H472.712V6.82Z" fill="#BE123C"/>
</svg>
