<svg width="441" height="22" viewBox="0 0 441 22" fill="none" xmlns="http://www.w3.org/2000/svg">
<path d="M19.06 2.06L15.02 16H12.98L9.74 4.78L6.38 16L4.36 16.02L0.46 2.06H2.4L5.44 13.88L8.8 2.06H10.84L14.04 13.84L17.1 2.06H19.06ZM22.8717 6.82C23.1917 6.19333 23.6451 5.70667 24.2317 5.36C24.8317 5.01333 25.5584 4.84 26.4117 4.84V6.72H25.9317C23.8917 6.72 22.8717 7.82667 22.8717 10.04V16H21.0517V5.04H22.8717V6.82ZM29.4527 3.26C29.106 3.26 28.8127 3.14 28.5727 2.9C28.3327 2.66 28.2127 2.36667 28.2127 2.02C28.2127 1.67333 28.3327 1.38 28.5727 1.14C28.8127 0.899999 29.106 0.779999 29.4527 0.779999C29.786 0.779999 30.066 0.899999 30.2927 1.14C30.5327 1.38 30.6527 1.67333 30.6527 2.02C30.6527 2.36667 30.5327 2.66 30.2927 2.9C30.066 3.14 29.786 3.26 29.4527 3.26ZM30.3327 5.04V16H28.5127V5.04H30.3327ZM35.6545 6.54V13C35.6545 13.5333 35.7679 13.9133 35.9945 14.14C36.2212 14.3533 36.6145 14.46 37.1745 14.46H38.5145V16H36.8745C35.8612 16 35.1012 15.7667 34.5945 15.3C34.0879 14.8333 33.8345 14.0667 33.8345 13V6.54H32.4145V5.04H33.8345V2.28H35.6545V5.04H38.5145V6.54H35.6545ZM50.7197 10.1C50.7197 10.4467 50.6997 10.8133 50.6597 11.2H41.8997C41.9664 12.28 42.333 13.1267 42.9997 13.74C43.6797 14.34 44.4997 14.64 45.4597 14.64C46.2464 14.64 46.8997 14.46 47.4197 14.1C47.953 13.7267 48.3264 13.2333 48.5397 12.62H50.4997C50.2064 13.6733 49.6197 14.5333 48.7397 15.2C47.8597 15.8533 46.7664 16.18 45.4597 16.18C44.4197 16.18 43.4864 15.9467 42.6597 15.48C41.8464 15.0133 41.2064 14.3533 40.7397 13.5C40.273 12.6333 40.0397 11.6333 40.0397 10.5C40.0397 9.36667 40.2664 8.37333 40.7197 7.52C41.173 6.66667 41.8064 6.01333 42.6197 5.56C43.4464 5.09333 44.393 4.86 45.4597 4.86C46.4997 4.86 47.4197 5.08667 48.2197 5.54C49.0197 5.99333 49.633 6.62 50.0597 7.42C50.4997 8.20667 50.7197 9.1 50.7197 10.1ZM48.8397 9.72C48.8397 9.02667 48.6864 8.43333 48.3797 7.94C48.073 7.43333 47.653 7.05333 47.1197 6.8C46.5997 6.53333 46.0197 6.4 45.3797 6.4C44.4597 6.4 43.673 6.69333 43.0197 7.28C42.3797 7.86667 42.013 8.68 41.9197 9.72H48.8397ZM54.942 6.82C55.262 6.19333 55.7154 5.70667 56.302 5.36C56.902 5.01333 57.6287 4.84 58.482 4.84V6.72H58.002C55.962 6.72 54.942 7.82667 54.942 10.04V16H53.122V5.04H54.942V6.82ZM64.463 16.18C63.623 16.18 62.8696 16.04 62.203 15.76C61.5363 15.4667 61.0096 15.0667 60.623 14.56C60.2363 14.04 60.023 13.4467 59.983 12.78H61.863C61.9163 13.3267 62.1696 13.7733 62.623 14.12C63.0896 14.4667 63.6963 14.64 64.443 14.64C65.1363 14.64 65.683 14.4867 66.083 14.18C66.483 13.8733 66.683 13.4867 66.683 13.02C66.683 12.54 66.4696 12.1867 66.043 11.96C65.6163 11.72 64.9563 11.4867 64.063 11.26C63.2496 11.0467 62.583 10.8333 62.063 10.62C61.5563 10.3933 61.1163 10.0667 60.743 9.64C60.383 9.2 60.203 8.62667 60.203 7.92C60.203 7.36 60.3696 6.84667 60.703 6.38C61.0363 5.91333 61.5096 5.54667 62.123 5.28C62.7363 5 63.4363 4.86 64.223 4.86C65.4363 4.86 66.4163 5.16667 67.163 5.78C67.9096 6.39333 68.3096 7.23333 68.363 8.3H66.543C66.503 7.72667 66.2696 7.26667 65.843 6.92C65.4296 6.57333 64.8696 6.4 64.163 6.4C63.5096 6.4 62.9896 6.54 62.603 6.82C62.2163 7.1 62.023 7.46667 62.023 7.92C62.023 8.28 62.1363 8.58 62.363 8.82C62.603 9.04667 62.8963 9.23333 63.243 9.38C63.603 9.51333 64.0963 9.66667 64.723 9.84C65.5096 10.0533 66.1496 10.2667 66.643 10.48C67.1363 10.68 67.5563 10.9867 67.903 11.4C68.263 11.8133 68.4496 12.3533 68.463 13.02C68.463 13.62 68.2963 14.16 67.963 14.64C67.6296 15.12 67.1563 15.5 66.543 15.78C65.943 16.0467 65.2496 16.18 64.463 16.18ZM76.9442 16.12C76.5976 16.12 76.3042 16 76.0642 15.76C75.8242 15.52 75.7042 15.2267 75.7042 14.88C75.7042 14.5333 75.8242 14.24 76.0642 14C76.3042 13.76 76.5976 13.64 76.9442 13.64C77.2776 13.64 77.5576 13.76 77.7842 14C78.0242 14.24 78.1442 14.5333 78.1442 14.88C78.1442 15.2267 78.0242 15.52 77.7842 15.76C77.5576 16 77.2776 16.12 76.9442 16.12ZM76.9442 7.56C76.5976 7.56 76.3042 7.44 76.0642 7.2C75.8242 6.96 75.7042 6.66667 75.7042 6.32C75.7042 5.97333 75.8242 5.68 76.0642 5.44C76.3042 5.2 76.5976 5.08 76.9442 5.08C77.2776 5.08 77.5576 5.2 77.7842 5.44C78.0242 5.68 78.1442 5.97333 78.1442 6.32C78.1442 6.66667 78.0242 6.96 77.7842 7.2C77.5576 7.44 77.2776 7.56 76.9442 7.56Z" fill="#333333"/>
<path d="M98.3061 2.06V12.36C98.3061 13.5067 97.9528 14.4267 97.2461 15.12C96.5394 15.8 95.6061 16.14 94.4461 16.14C93.2728 16.14 92.3328 15.7933 91.6261 15.1C90.9194 14.3933 90.5661 13.4333 90.5661 12.22H92.3861C92.3994 12.9 92.5728 13.4533 92.9061 13.88C93.2528 14.3067 93.7661 14.52 94.4461 14.52C95.1261 14.52 95.6328 14.32 95.9661 13.92C96.2994 13.5067 96.4661 12.9867 96.4661 12.36V2.06H98.3061ZM102.832 3.26C102.485 3.26 102.192 3.14 101.952 2.9C101.712 2.66 101.592 2.36667 101.592 2.02C101.592 1.67333 101.712 1.38 101.952 1.14C102.192 0.899999 102.485 0.779999 102.832 0.779999C103.165 0.779999 103.445 0.899999 103.672 1.14C103.912 1.38 104.032 1.67333 104.032 2.02C104.032 2.36667 103.912 2.66 103.672 2.9C103.445 3.14 103.165 3.26 102.832 3.26ZM103.712 5.04V16H101.892V5.04H103.712ZM119.993 4.84C120.847 4.84 121.607 5.02 122.273 5.38C122.94 5.72667 123.467 6.25333 123.853 6.96C124.24 7.66667 124.433 8.52667 124.433 9.54V16H122.633V9.8C122.633 8.70667 122.36 7.87333 121.813 7.3C121.28 6.71333 120.553 6.42 119.633 6.42C118.687 6.42 117.933 6.72667 117.373 7.34C116.813 7.94 116.533 8.81333 116.533 9.96V16H114.733V9.8C114.733 8.70667 114.46 7.87333 113.913 7.3C113.38 6.71333 112.653 6.42 111.733 6.42C110.787 6.42 110.033 6.72667 109.473 7.34C108.913 7.94 108.633 8.81333 108.633 9.96V16H106.813V5.04H108.633V6.62C108.993 6.04667 109.473 5.60667 110.073 5.3C110.687 4.99333 111.36 4.84 112.093 4.84C113.013 4.84 113.827 5.04667 114.533 5.46C115.24 5.87333 115.767 6.48 116.113 7.28C116.42 6.50667 116.927 5.90667 117.633 5.48C118.34 5.05333 119.127 4.84 119.993 4.84ZM132.071 9.02C132.071 7.66 132.378 6.44 132.991 5.36C133.604 4.26667 134.438 3.41333 135.491 2.8C136.558 2.18667 137.738 1.88 139.031 1.88C140.551 1.88 141.878 2.24667 143.011 2.98C144.144 3.71333 144.971 4.75333 145.491 6.1H143.311C142.924 5.26 142.364 4.61333 141.631 4.16C140.911 3.70667 140.044 3.48 139.031 3.48C138.058 3.48 137.184 3.70667 136.411 4.16C135.638 4.61333 135.031 5.26 134.591 6.1C134.151 6.92667 133.931 7.9 133.931 9.02C133.931 10.1267 134.151 11.1 134.591 11.94C135.031 12.7667 135.638 13.4067 136.411 13.86C137.184 14.3133 138.058 14.54 139.031 14.54C140.044 14.54 140.911 14.32 141.631 13.88C142.364 13.4267 142.924 12.78 143.311 11.94H145.491C144.971 13.2733 144.144 14.3067 143.011 15.04C141.878 15.76 140.551 16.12 139.031 16.12C137.738 16.12 136.558 15.82 135.491 15.22C134.438 14.6067 133.604 13.76 132.991 12.68C132.378 11.6 132.071 10.38 132.071 9.02ZM147.52 10.48C147.52 9.36 147.747 8.38 148.2 7.54C148.653 6.68667 149.273 6.02667 150.06 5.56C150.86 5.09333 151.747 4.86 152.72 4.86C153.68 4.86 154.513 5.06667 155.22 5.48C155.927 5.89333 156.453 6.41333 156.8 7.04V5.04H158.64V16H156.8V13.96C156.44 14.6 155.9 15.1333 155.18 15.56C154.473 15.9733 153.647 16.18 152.7 16.18C151.727 16.18 150.847 15.94 150.06 15.46C149.273 14.98 148.653 14.3067 148.2 13.44C147.747 12.5733 147.52 11.5867 147.52 10.48ZM156.8 10.5C156.8 9.67333 156.633 8.95333 156.3 8.34C155.967 7.72667 155.513 7.26 154.94 6.94C154.38 6.60667 153.76 6.44 153.08 6.44C152.4 6.44 151.78 6.6 151.22 6.92C150.66 7.24 150.213 7.70667 149.88 8.32C149.547 8.93333 149.38 9.65333 149.38 10.48C149.38 11.32 149.547 12.0533 149.88 12.68C150.213 13.2933 150.66 13.7667 151.22 14.1C151.78 14.42 152.4 14.58 153.08 14.58C153.76 14.58 154.38 14.42 154.94 14.1C155.513 13.7667 155.967 13.2933 156.3 12.68C156.633 12.0533 156.8 11.3267 156.8 10.5ZM165.596 16.18C164.756 16.18 164.002 16.04 163.336 15.76C162.669 15.4667 162.142 15.0667 161.756 14.56C161.369 14.04 161.156 13.4467 161.116 12.78H162.996C163.049 13.3267 163.302 13.7733 163.756 14.12C164.222 14.4667 164.829 14.64 165.576 14.64C166.269 14.64 166.816 14.4867 167.216 14.18C167.616 13.8733 167.816 13.4867 167.816 13.02C167.816 12.54 167.602 12.1867 167.176 11.96C166.749 11.72 166.089 11.4867 165.196 11.26C164.382 11.0467 163.716 10.8333 163.196 10.62C162.689 10.3933 162.249 10.0667 161.876 9.64C161.516 9.2 161.336 8.62667 161.336 7.92C161.336 7.36 161.502 6.84667 161.836 6.38C162.169 5.91333 162.642 5.54667 163.256 5.28C163.869 5 164.569 4.86 165.356 4.86C166.569 4.86 167.549 5.16667 168.296 5.78C169.042 6.39333 169.442 7.23333 169.496 8.3H167.676C167.636 7.72667 167.402 7.26667 166.976 6.92C166.562 6.57333 166.002 6.4 165.296 6.4C164.642 6.4 164.122 6.54 163.736 6.82C163.349 7.1 163.156 7.46667 163.156 7.92C163.156 8.28 163.269 8.58 163.496 8.82C163.736 9.04667 164.029 9.23333 164.376 9.38C164.736 9.51333 165.229 9.66667 165.856 9.84C166.642 10.0533 167.282 10.2667 167.776 10.48C168.269 10.68 168.689 10.9867 169.036 11.4C169.396 11.8133 169.582 12.3533 169.596 13.02C169.596 13.62 169.429 14.16 169.096 14.64C168.762 15.12 168.289 15.5 167.676 15.78C167.076 16.0467 166.382 16.18 165.596 16.18ZM177.605 4.84C178.432 4.84 179.178 5.02 179.845 5.38C180.512 5.72667 181.032 6.25333 181.405 6.96C181.792 7.66667 181.985 8.52667 181.985 9.54V16H180.185V9.8C180.185 8.70667 179.912 7.87333 179.365 7.3C178.818 6.71333 178.072 6.42 177.125 6.42C176.165 6.42 175.398 6.72 174.825 7.32C174.265 7.92 173.985 8.79333 173.985 9.94V16H172.165V1.2H173.985V6.6C174.345 6.04 174.838 5.60667 175.465 5.3C176.105 4.99333 176.818 4.84 177.605 4.84ZM186.838 13.48L184.598 18.86H183.378L184.838 13.48H186.838ZM201.275 2.06V12.36C201.275 13.5067 200.922 14.4267 200.215 15.12C199.508 15.8 198.575 16.14 197.415 16.14C196.242 16.14 195.302 15.7933 194.595 15.1C193.888 14.3933 193.535 13.4333 193.535 12.22H195.355C195.368 12.9 195.542 13.4533 195.875 13.88C196.222 14.3067 196.735 14.52 197.415 14.52C198.095 14.52 198.602 14.32 198.935 13.92C199.268 13.5067 199.435 12.9867 199.435 12.36V2.06H201.275ZM204.18 10.48C204.18 9.36 204.407 8.38 204.86 7.54C205.314 6.68667 205.934 6.02667 206.72 5.56C207.52 5.09333 208.407 4.86 209.38 4.86C210.34 4.86 211.174 5.06667 211.88 5.48C212.587 5.89333 213.114 6.41333 213.46 7.04V5.04H215.3V16H213.46V13.96C213.1 14.6 212.56 15.1333 211.84 15.56C211.134 15.9733 210.307 16.18 209.36 16.18C208.387 16.18 207.507 15.94 206.72 15.46C205.934 14.98 205.314 14.3067 204.86 13.44C204.407 12.5733 204.18 11.5867 204.18 10.48ZM213.46 10.5C213.46 9.67333 213.294 8.95333 212.96 8.34C212.627 7.72667 212.174 7.26 211.6 6.94C211.04 6.60667 210.42 6.44 209.74 6.44C209.06 6.44 208.44 6.6 207.88 6.92C207.32 7.24 206.874 7.70667 206.54 8.32C206.207 8.93333 206.04 9.65333 206.04 10.48C206.04 11.32 206.207 12.0533 206.54 12.68C206.874 13.2933 207.32 13.7667 207.88 14.1C208.44 14.42 209.06 14.58 209.74 14.58C210.42 14.58 211.04 14.42 211.6 14.1C212.174 13.7667 212.627 13.2933 212.96 12.68C213.294 12.0533 213.46 11.3267 213.46 10.5ZM217.696 10.5C217.696 9.36667 217.923 8.38 218.376 7.54C218.829 6.68667 219.456 6.02667 220.256 5.56C221.069 5.09333 221.996 4.86 223.036 4.86C224.383 4.86 225.489 5.18667 226.356 5.84C227.236 6.49333 227.816 7.4 228.096 8.56H226.136C225.949 7.89333 225.583 7.36667 225.036 6.98C224.503 6.59333 223.836 6.4 223.036 6.4C221.996 6.4 221.156 6.76 220.516 7.48C219.876 8.18667 219.556 9.19333 219.556 10.5C219.556 11.82 219.876 12.84 220.516 13.56C221.156 14.28 221.996 14.64 223.036 14.64C223.836 14.64 224.503 14.4533 225.036 14.08C225.569 13.7067 225.936 13.1733 226.136 12.48H228.096C227.803 13.6 227.216 14.5 226.336 15.18C225.456 15.8467 224.356 16.18 223.036 16.18C221.996 16.18 221.069 15.9467 220.256 15.48C219.456 15.0133 218.829 14.3533 218.376 13.5C217.923 12.6467 217.696 11.6467 217.696 10.5ZM236.644 16L232.344 11.16V16H230.524V1.2H232.344V9.9L236.564 5.04H239.104L233.944 10.5L239.124 16H236.644ZM247.969 3.54V8.2H253.049V9.7H247.969V14.5H253.649V16H246.149V2.04H253.649V3.54H247.969ZM258.223 7.06C258.583 6.43333 259.117 5.91333 259.823 5.5C260.543 5.07333 261.377 4.86 262.323 4.86C263.297 4.86 264.177 5.09333 264.963 5.56C265.763 6.02667 266.39 6.68667 266.843 7.54C267.297 8.38 267.523 9.36 267.523 10.48C267.523 11.5867 267.297 12.5733 266.843 13.44C266.39 14.3067 265.763 14.98 264.963 15.46C264.177 15.94 263.297 16.18 262.323 16.18C261.39 16.18 260.563 15.9733 259.843 15.56C259.137 15.1333 258.597 14.6067 258.223 13.98V21.2H256.403V5.04H258.223V7.06ZM265.663 10.48C265.663 9.65333 265.497 8.93333 265.163 8.32C264.83 7.70667 264.377 7.24 263.803 6.92C263.243 6.6 262.623 6.44 261.943 6.44C261.277 6.44 260.657 6.60667 260.083 6.94C259.523 7.26 259.07 7.73333 258.723 8.36C258.39 8.97333 258.223 9.68667 258.223 10.5C258.223 11.3267 258.39 12.0533 258.723 12.68C259.07 13.2933 259.523 13.7667 260.083 14.1C260.657 14.42 261.277 14.58 261.943 14.58C262.623 14.58 263.243 14.42 263.803 14.1C264.377 13.7667 264.83 13.2933 265.163 12.68C265.497 12.0533 265.663 11.32 265.663 10.48ZM271.739 7.06C272.099 6.43333 272.632 5.91333 273.339 5.5C274.059 5.07333 274.892 4.86 275.839 4.86C276.812 4.86 277.692 5.09333 278.479 5.56C279.279 6.02667 279.906 6.68667 280.359 7.54C280.812 8.38 281.039 9.36 281.039 10.48C281.039 11.5867 280.812 12.5733 280.359 13.44C279.906 14.3067 279.279 14.98 278.479 15.46C277.692 15.94 276.812 16.18 275.839 16.18C274.906 16.18 274.079 15.9733 273.359 15.56C272.652 15.1333 272.112 14.6067 271.739 13.98V21.2H269.919V5.04H271.739V7.06ZM279.179 10.48C279.179 9.65333 279.012 8.93333 278.679 8.32C278.346 7.70667 277.892 7.24 277.319 6.92C276.759 6.6 276.139 6.44 275.459 6.44C274.792 6.44 274.172 6.60667 273.599 6.94C273.039 7.26 272.586 7.73333 272.239 8.36C271.906 8.97333 271.739 9.68667 271.739 10.5C271.739 11.3267 271.906 12.0533 272.239 12.68C272.586 13.2933 273.039 13.7667 273.599 14.1C274.172 14.42 274.792 14.58 275.459 14.58C276.139 14.58 276.759 14.42 277.319 14.1C277.892 13.7667 278.346 13.2933 278.679 12.68C279.012 12.0533 279.179 11.32 279.179 10.48ZM287.315 16.18C286.475 16.18 285.721 16.04 285.055 15.76C284.388 15.4667 283.861 15.0667 283.475 14.56C283.088 14.04 282.875 13.4467 282.835 12.78H284.715C284.768 13.3267 285.021 13.7733 285.475 14.12C285.941 14.4667 286.548 14.64 287.295 14.64C287.988 14.64 288.535 14.4867 288.935 14.18C289.335 13.8733 289.535 13.4867 289.535 13.02C289.535 12.54 289.321 12.1867 288.895 11.96C288.468 11.72 287.808 11.4867 286.915 11.26C286.101 11.0467 285.435 10.8333 284.915 10.62C284.408 10.3933 283.968 10.0667 283.595 9.64C283.235 9.2 283.055 8.62667 283.055 7.92C283.055 7.36 283.221 6.84667 283.555 6.38C283.888 5.91333 284.361 5.54667 284.975 5.28C285.588 5 286.288 4.86 287.075 4.86C288.288 4.86 289.268 5.16667 290.015 5.78C290.761 6.39333 291.161 7.23333 291.215 8.3H289.395C289.355 7.72667 289.121 7.26667 288.695 6.92C288.281 6.57333 287.721 6.4 287.015 6.4C286.361 6.4 285.841 6.54 285.455 6.82C285.068 7.1 284.875 7.46667 284.875 7.92C284.875 8.28 284.988 8.58 285.215 8.82C285.455 9.04667 285.748 9.23333 286.095 9.38C286.455 9.51333 286.948 9.66667 287.575 9.84C288.361 10.0533 289.001 10.2667 289.495 10.48C289.988 10.68 290.408 10.9867 290.755 11.4C291.115 11.8133 291.301 12.3533 291.315 13.02C291.315 13.62 291.148 14.16 290.815 14.64C290.481 15.12 290.008 15.5 289.395 15.78C288.795 16.0467 288.101 16.18 287.315 16.18ZM306.236 2.06V12.36C306.236 13.5067 305.882 14.4267 305.176 15.12C304.469 15.8 303.536 16.14 302.376 16.14C301.202 16.14 300.262 15.7933 299.556 15.1C298.849 14.3933 298.496 13.4333 298.496 12.22H300.316C300.329 12.9 300.502 13.4533 300.836 13.88C301.182 14.3067 301.696 14.52 302.376 14.52C303.056 14.52 303.562 14.32 303.896 13.92C304.229 13.5067 304.396 12.9867 304.396 12.36V2.06H306.236ZM311.641 6.82C311.961 6.19333 312.415 5.70667 313.001 5.36C313.601 5.01333 314.328 4.84 315.181 4.84V6.72H314.701C312.661 6.72 311.641 7.82667 311.641 10.04V16H309.821V5.04H311.641V6.82ZM319.162 13.48L316.922 18.86H315.702L317.162 13.48H319.162ZM341.231 6.14C341.231 7.3 340.831 8.26667 340.031 9.04C339.244 9.8 338.038 10.18 336.411 10.18H333.731V16H331.911V2.06H336.411C337.984 2.06 339.178 2.44 339.991 3.2C340.818 3.96 341.231 4.94 341.231 6.14ZM336.411 8.68C337.424 8.68 338.171 8.46 338.651 8.02C339.131 7.58 339.371 6.95333 339.371 6.14C339.371 4.42 338.384 3.56 336.411 3.56H333.731V8.68H336.411ZM353.493 10.1C353.493 10.4467 353.473 10.8133 353.433 11.2H344.673C344.74 12.28 345.106 13.1267 345.773 13.74C346.453 14.34 347.273 14.64 348.233 14.64C349.02 14.64 349.673 14.46 350.193 14.1C350.726 13.7267 351.1 13.2333 351.313 12.62H353.273C352.98 13.6733 352.393 14.5333 351.513 15.2C350.633 15.8533 349.54 16.18 348.233 16.18C347.193 16.18 346.26 15.9467 345.433 15.48C344.62 15.0133 343.98 14.3533 343.513 13.5C343.046 12.6333 342.813 11.6333 342.813 10.5C342.813 9.36667 343.04 8.37333 343.493 7.52C343.946 6.66667 344.58 6.01333 345.393 5.56C346.22 5.09333 347.166 4.86 348.233 4.86C349.273 4.86 350.193 5.08667 350.993 5.54C351.793 5.99333 352.406 6.62 352.833 7.42C353.273 8.20667 353.493 9.1 353.493 10.1ZM351.613 9.72C351.613 9.02667 351.46 8.43333 351.153 7.94C350.846 7.43333 350.426 7.05333 349.893 6.8C349.373 6.53333 348.793 6.4 348.153 6.4C347.233 6.4 346.446 6.69333 345.793 7.28C345.153 7.86667 344.786 8.68 344.693 9.72H351.613ZM358.115 6.54V13C358.115 13.5333 358.229 13.9133 358.455 14.14C358.682 14.3533 359.075 14.46 359.635 14.46H360.975V16H359.335C358.322 16 357.562 15.7667 357.055 15.3C356.549 14.8333 356.295 14.0667 356.295 13V6.54H354.875V5.04H356.295V2.28H358.115V5.04H360.975V6.54H358.115ZM373.181 10.1C373.181 10.4467 373.161 10.8133 373.121 11.2H364.361C364.427 12.28 364.794 13.1267 365.461 13.74C366.141 14.34 366.961 14.64 367.921 14.64C368.707 14.64 369.361 14.46 369.881 14.1C370.414 13.7267 370.787 13.2333 371.001 12.62H372.961C372.667 13.6733 372.081 14.5333 371.201 15.2C370.321 15.8533 369.227 16.18 367.921 16.18C366.881 16.18 365.947 15.9467 365.121 15.48C364.307 15.0133 363.667 14.3533 363.201 13.5C362.734 12.6333 362.501 11.6333 362.501 10.5C362.501 9.36667 362.727 8.37333 363.181 7.52C363.634 6.66667 364.267 6.01333 365.081 5.56C365.907 5.09333 366.854 4.86 367.921 4.86C368.961 4.86 369.881 5.08667 370.681 5.54C371.481 5.99333 372.094 6.62 372.521 7.42C372.961 8.20667 373.181 9.1 373.181 10.1ZM371.301 9.72C371.301 9.02667 371.147 8.43333 370.841 7.94C370.534 7.43333 370.114 7.05333 369.581 6.8C369.061 6.53333 368.481 6.4 367.841 6.4C366.921 6.4 366.134 6.69333 365.481 7.28C364.841 7.86667 364.474 8.68 364.381 9.72H371.301ZM377.403 6.82C377.723 6.19333 378.176 5.70667 378.763 5.36C379.363 5.01333 380.09 4.84 380.943 4.84V6.72H380.463C378.423 6.72 377.403 7.82667 377.403 10.04V16H375.583V5.04H377.403V6.82ZM387.696 9.02C387.696 7.66 388.003 6.44 388.616 5.36C389.229 4.26667 390.063 3.41333 391.116 2.8C392.183 2.18667 393.363 1.88 394.656 1.88C396.176 1.88 397.503 2.24667 398.636 2.98C399.769 3.71333 400.596 4.75333 401.116 6.1H398.936C398.549 5.26 397.989 4.61333 397.256 4.16C396.536 3.70667 395.669 3.48 394.656 3.48C393.683 3.48 392.809 3.70667 392.036 4.16C391.263 4.61333 390.656 5.26 390.216 6.1C389.776 6.92667 389.556 7.9 389.556 9.02C389.556 10.1267 389.776 11.1 390.216 11.94C390.656 12.7667 391.263 13.4067 392.036 13.86C392.809 14.3133 393.683 14.54 394.656 14.54C395.669 14.54 396.536 14.32 397.256 13.88C397.989 13.4267 398.549 12.78 398.936 11.94H401.116C400.596 13.2733 399.769 14.3067 398.636 15.04C397.503 15.76 396.176 16.12 394.656 16.12C393.363 16.12 392.183 15.82 391.116 15.22C390.063 14.6067 389.229 13.76 388.616 12.68C388.003 11.6 387.696 10.38 387.696 9.02ZM405.645 6.82C405.965 6.19333 406.418 5.70667 407.005 5.36C407.605 5.01333 408.332 4.84 409.185 4.84V6.72H408.705C406.665 6.72 405.645 7.82667 405.645 10.04V16H403.825V5.04H405.645V6.82ZM410.606 10.48C410.606 9.36 410.833 8.38 411.286 7.54C411.739 6.68667 412.359 6.02667 413.146 5.56C413.946 5.09333 414.833 4.86 415.806 4.86C416.766 4.86 417.599 5.06667 418.306 5.48C419.013 5.89333 419.539 6.41333 419.886 7.04V5.04H421.726V16H419.886V13.96C419.526 14.6 418.986 15.1333 418.266 15.56C417.559 15.9733 416.733 16.18 415.786 16.18C414.813 16.18 413.933 15.94 413.146 15.46C412.359 14.98 411.739 14.3067 411.286 13.44C410.833 12.5733 410.606 11.5867 410.606 10.48ZM419.886 10.5C419.886 9.67333 419.719 8.95333 419.386 8.34C419.053 7.72667 418.599 7.26 418.026 6.94C417.466 6.60667 416.846 6.44 416.166 6.44C415.486 6.44 414.866 6.6 414.306 6.92C413.746 7.24 413.299 7.70667 412.966 8.32C412.633 8.93333 412.466 9.65333 412.466 10.48C412.466 11.32 412.633 12.0533 412.966 12.68C413.299 13.2933 413.746 13.7667 414.306 14.1C414.866 14.42 415.486 14.58 416.166 14.58C416.846 14.58 417.466 14.42 418.026 14.1C418.599 13.7667 419.053 13.2933 419.386 12.68C419.719 12.0533 419.886 11.3267 419.886 10.5ZM425.742 3.26C425.395 3.26 425.102 3.14 424.862 2.9C424.622 2.66 424.502 2.36667 424.502 2.02C424.502 1.67333 424.622 1.38 424.862 1.14C425.102 0.899999 425.395 0.779999 425.742 0.779999C426.075 0.779999 426.355 0.899999 426.582 1.14C426.822 1.38 426.942 1.67333 426.942 2.02C426.942 2.36667 426.822 2.66 426.582 2.9C426.355 3.14 426.075 3.26 425.742 3.26ZM426.622 5.04V16H424.802V5.04H426.622ZM434.244 4.86C435.19 4.86 436.017 5.06667 436.724 5.48C437.444 5.89333 437.977 6.41333 438.324 7.04V5.04H440.164V16.24C440.164 17.24 439.95 18.1267 439.524 18.9C439.097 19.6867 438.484 20.3 437.684 20.74C436.897 21.18 435.977 21.4 434.924 21.4C433.484 21.4 432.284 21.06 431.324 20.38C430.364 19.7 429.797 18.7733 429.624 17.6H431.424C431.624 18.2667 432.037 18.8 432.664 19.2C433.29 19.6133 434.044 19.82 434.924 19.82C435.924 19.82 436.737 19.5067 437.364 18.88C438.004 18.2533 438.324 17.3733 438.324 16.24V13.94C437.964 14.58 437.43 15.1133 436.724 15.54C436.017 15.9667 435.19 16.18 434.244 16.18C433.27 16.18 432.384 15.94 431.584 15.46C430.797 14.98 430.177 14.3067 429.724 13.44C429.27 12.5733 429.044 11.5867 429.044 10.48C429.044 9.36 429.27 8.38 429.724 7.54C430.177 6.68667 430.797 6.02667 431.584 5.56C432.384 5.09333 433.27 4.86 434.244 4.86ZM438.324 10.5C438.324 9.67333 438.157 8.95333 437.824 8.34C437.49 7.72667 437.037 7.26 436.464 6.94C435.904 6.60667 435.284 6.44 434.604 6.44C433.924 6.44 433.304 6.6 432.744 6.92C432.184 7.24 431.737 7.70667 431.404 8.32C431.07 8.93333 430.904 9.65333 430.904 10.48C430.904 11.32 431.07 12.0533 431.404 12.68C431.737 13.2933 432.184 13.7667 432.744 14.1C433.304 14.42 433.924 14.58 434.604 14.58C435.284 14.58 435.904 14.42 436.464 14.1C437.037 13.7667 437.49 13.2933 437.824 12.68C438.157 12.0533 438.324 11.3267 438.324 10.5Z" fill="#BE123C"/>
</svg>
